<svg width="32" height="32" viewBox="0 0 32 32" fill="none" xmlns="http://www.w3.org/2000/svg">
<path d="M16 32C24.8366 32 32 24.8366 32 16C32 7.16344 24.8366 0 16 0C7.16344 0 0 7.16344 0 16C0 24.8366 7.16344 32 16 32Z" fill="#19D873"/>
<path d="M14 17.9L10.8071 14.7071C10.4166 14.3166 9.78342 14.3166 9.39289 14.7071L8.70711 15.3929C8.31658 15.7834 8.31658 16.4166 8.70711 16.8071L13.2929 21.3929C13.6834 21.7834 14.3166 21.7834 14.7071 21.3929L23.2929 12.8071C23.6834 12.4166 23.6834 11.7834 23.2929 11.3929L22.6071 10.7071C22.2166 10.3166 21.5834 10.3166 21.1929 10.7071L14 17.9Z" fill="#E6E6E6"/>
</svg>
